<svg xmlns="http://www.w3.org/2000/svg" xmlns:xlink="http://www.w3.org/1999/xlink" width="500" zoomAndPan="magnify" viewBox="0 0 375 374.999991" height="500" preserveAspectRatio="xMidYMid meet" version="1.0"><defs><clipPath id="50a7c770e4"><path d="M 80 62.375 L 132 62.375 L 132 113 L 80 113 Z M 80 62.375 " clip-rule="nonzero"/></clipPath><clipPath id="1b3369d756"><path d="M 243 62.375 L 295 62.375 L 295 113 L 243 113 Z M 243 62.375 " clip-rule="nonzero"/></clipPath><clipPath id="8aa7264fcc"><path d="M 162 62.375 L 213 62.375 L 213 113 L 162 113 Z M 162 62.375 " clip-rule="nonzero"/></clipPath><clipPath id="2c838e9320"><path d="M 37.5 185 L 337.5 185 L 337.5 312.875 L 37.5 312.875 Z M 37.5 185 " clip-rule="nonzero"/></clipPath></defs><path fill="#f2f2f2" d="M 131.730469 147.328125 C 131.730469 139.496094 133.847656 131.949219 137.730469 125.476562 C 134.984375 123.105469 131.761719 121.242188 128.320312 120.011719 C 122.003906 124.402344 114.300781 126.925781 106.089844 126.925781 C 97.816406 126.925781 90.109375 124.371094 83.792969 120.011719 C 72.457031 124.023438 64.34375 134.695312 64.34375 147.328125 L 64.34375 170.980469 L 131.730469 170.980469 Z M 131.730469 147.328125 " fill-opacity="1" fill-rule="nonzero"/><g clip-path="url(#50a7c770e4)"><path fill="#f2f2f2" d="M 106.058594 112.78125 C 119.984375 112.78125 131.257812 101.507812 131.257812 87.582031 C 131.257812 73.652344 119.984375 62.378906 106.058594 62.378906 C 92.132812 62.378906 80.859375 73.652344 80.859375 87.582031 C 80.859375 101.507812 92.132812 112.78125 106.058594 112.78125 Z M 106.058594 112.78125 " fill-opacity="1" fill-rule="nonzero"/></g><path fill="#f2f2f2" d="M 243.300781 170.980469 L 310.6875 170.980469 L 310.6875 147.328125 C 310.6875 134.664062 302.511719 123.992188 291.207031 120.011719 C 284.859375 124.402344 277.183594 126.925781 268.972656 126.925781 C 260.699219 126.925781 253.058594 124.371094 246.742188 120.011719 C 243.269531 121.242188 240.078125 123.105469 237.332031 125.476562 C 241.183594 131.980469 243.332031 139.496094 243.332031 147.328125 L 243.332031 170.980469 Z M 243.300781 170.980469 " fill-opacity="1" fill-rule="nonzero"/><g clip-path="url(#1b3369d756)"><path fill="#f2f2f2" d="M 268.941406 112.78125 C 282.867188 112.78125 294.140625 101.507812 294.140625 87.582031 C 294.140625 73.652344 282.867188 62.378906 268.941406 62.378906 C 255.015625 62.378906 243.742188 73.652344 243.742188 87.582031 C 243.742188 101.507812 255.046875 112.78125 268.941406 112.78125 Z M 268.941406 112.78125 " fill-opacity="1" fill-rule="nonzero"/></g><g clip-path="url(#8aa7264fcc)"><path fill="#f2f2f2" d="M 187.5 112.78125 C 201.425781 112.78125 212.699219 101.507812 212.699219 87.582031 C 212.699219 73.652344 201.425781 62.378906 187.5 62.378906 C 173.574219 62.378906 162.300781 73.652344 162.300781 87.582031 C 162.300781 101.507812 173.574219 112.78125 187.5 112.78125 Z M 187.5 112.78125 " fill-opacity="1" fill-rule="nonzero"/></g><path fill="#f2f2f2" d="M 229.214844 170.980469 L 229.214844 147.328125 C 229.214844 134.664062 221.070312 123.992188 209.761719 120.011719 C 203.414062 124.371094 195.773438 126.960938 187.5 126.960938 C 179.257812 126.960938 171.585938 124.402344 165.238281 120.011719 C 153.929688 123.992188 145.785156 134.664062 145.785156 147.328125 L 145.785156 170.980469 Z M 229.214844 170.980469 " fill-opacity="1" fill-rule="nonzero"/><g clip-path="url(#2c838e9320)"><path fill="#f2f2f2" d="M 331.121094 185.222656 L 43.878906 185.222656 C 40.34375 185.222656 37.5 188.066406 37.5 191.601562 L 37.5 212.632812 C 37.5 216.167969 40.34375 219.011719 43.878906 219.011719 L 61.375 219.011719 L 61.375 306.234375 C 61.375 309.769531 64.214844 312.613281 67.753906 312.613281 L 307.214844 312.613281 C 310.753906 312.613281 313.59375 309.769531 313.59375 306.234375 L 313.59375 219.011719 L 331.089844 219.011719 C 334.625 219.011719 337.46875 216.167969 337.46875 212.632812 L 337.46875 191.601562 C 337.5 188.066406 334.65625 185.222656 331.121094 185.222656 Z M 218.667969 246.105469 L 208.027344 255.832031 C 207.078125 256.6875 206.667969 257.980469 206.921875 259.210938 L 209.828125 273.296875 C 210.773438 277.875 205.878906 281.445312 201.804688 279.136719 L 189.300781 272.03125 C 188.195312 271.402344 186.835938 271.402344 185.730469 272.03125 L 173.226562 279.136719 C 169.152344 281.445312 164.257812 277.90625 165.171875 273.296875 L 168.046875 259.210938 C 168.300781 257.980469 167.890625 256.6875 166.941406 255.832031 L 156.332031 246.105469 C 152.859375 242.949219 154.753906 237.167969 159.394531 236.664062 L 173.667969 235.085938 C 174.929688 234.960938 176.035156 234.136719 176.574219 232.96875 L 182.511719 219.863281 C 184.4375 215.601562 190.5 215.601562 192.425781 219.863281 L 198.394531 232.96875 C 198.929688 234.136719 200.003906 234.925781 201.269531 235.054688 L 215.542969 236.632812 C 220.246094 237.203125 222.109375 242.949219 218.667969 246.105469 Z M 218.667969 246.105469 " fill-opacity="1" fill-rule="nonzero"/></g></svg>