<svg xmlns="http://www.w3.org/2000/svg" xmlns:xlink="http://www.w3.org/1999/xlink" width="500" zoomAndPan="magnify" viewBox="0 0 375 374.999991" height="500" preserveAspectRatio="xMidYMid meet" version="1.0"><defs><clipPath id="a94b41359f"><path d="M 59.75 186 L 315.5 186 L 315.5 337.5 L 59.75 337.5 Z M 59.75 186 " clip-rule="nonzero"/></clipPath><clipPath id="c38d2ba2f0"><path d="M 112 37.5 L 263 37.5 L 263 117 L 112 117 Z M 112 37.5 " clip-rule="nonzero"/></clipPath></defs><path fill="#f2f2f2" d="M 209.320312 292.101562 C 203.199219 292.101562 198.238281 297.0625 198.238281 303.183594 C 198.238281 309.300781 203.199219 314.261719 209.320312 314.261719 C 215.4375 314.261719 220.402344 309.300781 220.402344 303.183594 C 220.402344 297.0625 215.4375 292.101562 209.320312 292.101562 Z M 219.921875 263.042969 L 198.71875 263.042969 L 198.71875 278.71875 L 219.921875 278.71875 Z M 265.992188 263.042969 L 244.789062 263.042969 L 244.789062 278.71875 L 265.992188 278.71875 Z M 255.390625 292.101562 C 249.269531 292.101562 244.308594 297.0625 244.308594 303.183594 C 244.308594 309.300781 249.269531 314.261719 255.390625 314.261719 C 261.507812 314.261719 266.472656 309.300781 266.472656 303.183594 C 266.472656 297.0625 261.511719 292.101562 255.390625 292.101562 Z M 310.824219 255.476562 L 310.824219 319.324219 C 310.824219 326.914062 304.675781 333.066406 297.082031 333.066406 L 77.917969 333.066406 C 70.328125 333.066406 64.171875 326.917969 64.171875 319.324219 L 64.171875 255.476562 C 64.171875 241.304688 72.339844 228.402344 85.148438 222.34375 L 150.730469 191.308594 C 160.648438 199.710938 173.476562 204.777344 187.496094 204.777344 C 201.519531 204.777344 214.351562 199.710938 224.265625 191.308594 L 289.851562 222.34375 C 302.65625 228.402344 310.824219 241.304688 310.824219 255.476562 Z M 310.824219 255.476562 " fill-opacity="1" fill-rule="nonzero"/><path fill="#f2f2f2" d="M 244.789062 263.042969 L 265.992188 263.042969 L 265.992188 278.71875 L 244.789062 278.71875 Z M 244.789062 263.042969 " fill-opacity="1" fill-rule="nonzero"/><path fill="#f2f2f2" d="M 255.390625 292.101562 C 261.507812 292.101562 266.472656 297.0625 266.472656 303.183594 C 266.472656 309.300781 261.511719 314.261719 255.390625 314.261719 C 249.269531 314.261719 244.308594 309.300781 244.308594 303.183594 C 244.308594 297.0625 249.269531 292.101562 255.390625 292.101562 Z M 255.390625 292.101562 " fill-opacity="1" fill-rule="nonzero"/><path fill="#f2f2f2" d="M 258.054688 112.503906 L 116.9375 112.503906 C 116.9375 73.535156 148.53125 41.945312 187.496094 41.945312 C 226.46875 41.945312 258.054688 73.535156 258.054688 112.503906 Z M 196.300781 82.402344 L 205.101562 73.820312 L 192.941406 72.050781 L 187.496094 61.027344 L 182.058594 72.050781 L 169.894531 73.820312 L 178.695312 82.402344 L 176.617188 94.519531 L 187.496094 88.800781 L 198.375 94.519531 Z M 196.300781 82.402344 " fill-opacity="1" fill-rule="nonzero"/><path fill="#f2f2f2" d="M 244.40625 113.753906 L 244.40625 147.878906 C 244.40625 165.289062 236.589844 180.867188 224.261719 191.308594 C 214.347656 199.710938 201.519531 204.777344 187.496094 204.777344 C 173.476562 204.777344 160.648438 199.710938 150.726562 191.308594 C 138.40625 180.867188 130.585938 165.289062 130.585938 147.878906 L 130.585938 112.503906 L 244.402344 112.503906 L 244.402344 113.753906 Z M 244.40625 113.753906 " fill-opacity="1" fill-rule="nonzero"/><path fill="#f2f2f2" d="M 198.71875 263.042969 L 219.921875 263.042969 L 219.921875 278.71875 L 198.71875 278.71875 Z M 198.71875 263.042969 " fill-opacity="1" fill-rule="nonzero"/><path fill="#f2f2f2" d="M 209.320312 292.101562 C 215.4375 292.101562 220.402344 297.0625 220.402344 303.183594 C 220.402344 309.300781 215.4375 314.261719 209.320312 314.261719 C 203.199219 314.261719 198.238281 309.300781 198.238281 303.183594 C 198.238281 297.0625 203.199219 292.101562 209.320312 292.101562 Z M 209.320312 292.101562 " fill-opacity="1" fill-rule="nonzero"/><path fill="#f2f2f2" d="M 205.101562 73.820312 L 196.300781 82.402344 L 198.375 94.519531 L 187.496094 88.800781 L 176.617188 94.519531 L 178.695312 82.402344 L 169.894531 73.820312 L 182.058594 72.050781 L 187.496094 61.027344 L 192.941406 72.050781 Z M 205.101562 73.820312 " fill-opacity="1" fill-rule="nonzero"/><g clip-path="url(#a94b41359f)"><path fill="#000000" d="M 297.082031 337.484375 L 77.917969 337.484375 C 67.902344 337.484375 59.75 329.335938 59.75 319.324219 L 59.75 255.476562 C 59.75 239.679688 68.976562 225.105469 83.261719 218.347656 L 148.839844 187.3125 C 151.046875 186.265625 153.679688 187.210938 154.726562 189.414062 C 155.769531 191.621094 154.828125 194.257812 152.621094 195.300781 L 87.042969 226.335938 C 75.835938 231.640625 68.59375 243.078125 68.59375 255.476562 L 68.59375 319.324219 C 68.59375 324.464844 72.777344 328.644531 77.921875 328.644531 L 297.085938 328.644531 C 302.226562 328.644531 306.40625 324.460938 306.40625 319.324219 L 306.40625 255.476562 C 306.40625 243.078125 299.164062 231.640625 287.960938 226.335938 L 222.371094 195.300781 C 220.164062 194.257812 219.222656 191.621094 220.265625 189.414062 C 221.3125 187.207031 223.945312 186.269531 226.152344 187.308594 L 291.738281 218.34375 C 306.019531 225.101562 315.242188 239.675781 315.242188 255.476562 L 315.242188 319.320312 C 315.242188 329.335938 307.097656 337.484375 297.082031 337.484375 Z M 297.082031 337.484375 " fill-opacity="1" fill-rule="nonzero"/></g><path fill="#000000" d="M 187.496094 209.199219 C 172.996094 209.199219 158.921875 204.039062 147.871094 194.679688 C 134.078125 182.996094 126.167969 165.9375 126.167969 147.878906 L 126.167969 113.753906 C 126.167969 111.308594 128.148438 109.332031 130.589844 109.332031 C 133.03125 109.332031 135.007812 111.308594 135.007812 113.753906 L 135.007812 147.878906 C 135.007812 163.335938 141.78125 177.933594 153.585938 187.933594 C 163.039062 195.945312 175.082031 200.359375 187.496094 200.359375 C 199.914062 200.359375 211.953125 195.945312 221.402344 187.9375 C 233.210938 177.9375 239.984375 163.335938 239.984375 147.878906 L 239.984375 113.753906 C 239.984375 111.308594 241.964844 109.332031 244.40625 109.332031 C 246.847656 109.332031 248.824219 111.308594 248.824219 113.753906 L 248.824219 147.878906 C 248.824219 165.941406 240.914062 183 227.117188 194.679688 C 216.078125 204.039062 202.003906 209.199219 187.496094 209.199219 Z M 187.496094 209.199219 " fill-opacity="1" fill-rule="nonzero"/><g clip-path="url(#c38d2ba2f0)"><path fill="#000000" d="M 258.054688 116.921875 C 255.613281 116.921875 253.636719 114.945312 253.636719 112.503906 C 253.636719 76.035156 223.964844 46.363281 187.496094 46.363281 C 151.027344 46.363281 121.359375 76.035156 121.359375 112.503906 C 121.359375 114.945312 119.378906 116.921875 116.9375 116.921875 C 114.496094 116.921875 112.519531 114.945312 112.519531 112.503906 C 112.519531 71.160156 146.152344 37.523438 187.496094 37.523438 C 228.839844 37.523438 262.476562 71.160156 262.476562 112.503906 C 262.476562 114.945312 260.496094 116.921875 258.054688 116.921875 Z M 258.054688 116.921875 " fill-opacity="1" fill-rule="nonzero"/></g><path fill="#000000" d="M 258.054688 116.921875 L 116.9375 116.921875 C 114.496094 116.921875 112.515625 114.945312 112.515625 112.503906 C 112.515625 110.0625 114.496094 108.082031 116.9375 108.082031 L 258.054688 108.082031 C 260.496094 108.082031 262.476562 110.0625 262.476562 112.503906 C 262.476562 114.945312 260.496094 116.921875 258.054688 116.921875 Z M 258.054688 116.921875 " fill-opacity="1" fill-rule="nonzero"/><path fill="#000000" d="M 92.929688 239.53125 C 91.277344 239.53125 89.695312 238.605469 88.9375 237.019531 C 87.882812 234.816406 88.8125 232.179688 91.019531 231.125 L 131.933594 211.558594 C 134.136719 210.503906 136.773438 211.4375 137.828125 213.640625 C 138.878906 215.84375 137.949219 218.480469 135.746094 219.535156 L 94.832031 239.097656 C 94.21875 239.394531 93.566406 239.53125 92.929688 239.53125 Z M 92.929688 239.53125 " fill-opacity="1" fill-rule="nonzero"/><path fill="#000000" d="M 282.066406 239.53125 C 281.425781 239.53125 280.777344 239.394531 280.160156 239.097656 L 239.253906 219.535156 C 237.050781 218.480469 236.117188 215.84375 237.171875 213.640625 C 238.226562 211.4375 240.867188 210.507812 243.066406 211.558594 L 283.976562 231.125 C 286.179688 232.179688 287.109375 234.816406 286.054688 237.019531 C 285.296875 238.605469 283.714844 239.53125 282.066406 239.53125 Z M 282.066406 239.53125 " fill-opacity="1" fill-rule="nonzero"/><path fill="#000000" d="M 198.375 98.386719 C 197.761719 98.386719 197.140625 98.242188 196.578125 97.941406 L 187.496094 93.171875 L 178.414062 97.941406 C 177.113281 98.628906 175.53125 98.511719 174.34375 97.648438 C 173.152344 96.78125 172.554688 95.316406 172.804688 93.863281 L 174.539062 83.75 L 167.191406 76.589844 C 166.136719 75.5625 165.757812 74.027344 166.214844 72.625 C 166.667969 71.226562 167.878906 70.207031 169.335938 69.996094 L 179.488281 68.519531 L 184.027344 59.320312 C 184.675781 58 186.019531 57.164062 187.492188 57.164062 C 188.964844 57.164062 190.308594 57.996094 190.960938 59.316406 L 195.503906 68.519531 L 205.652344 69.996094 C 207.109375 70.207031 208.320312 71.226562 208.773438 72.625 C 209.230469 74.027344 208.851562 75.5625 207.796875 76.589844 L 200.449219 83.75 L 202.183594 93.863281 C 202.433594 95.316406 201.835938 96.78125 200.644531 97.648438 C 199.976562 98.136719 199.175781 98.386719 198.375 98.386719 Z M 187.496094 84.933594 C 188.113281 84.933594 188.730469 85.078125 189.296875 85.375 L 193.238281 87.449219 L 192.484375 83.054688 C 192.269531 81.800781 192.6875 80.519531 193.597656 79.628906 L 196.789062 76.519531 L 192.382812 75.878906 C 191.121094 75.695312 190.035156 74.90625 189.46875 73.765625 L 187.496094 69.769531 L 185.527344 73.761719 C 184.964844 74.902344 183.875 75.695312 182.613281 75.878906 L 178.203125 76.519531 L 181.390625 79.628906 C 182.300781 80.519531 182.71875 81.800781 182.503906 83.054688 L 181.75 87.449219 L 185.691406 85.375 C 186.261719 85.078125 186.878906 84.933594 187.496094 84.933594 Z M 182.058594 72.050781 L 182.066406 72.050781 Z M 182.058594 72.050781 " fill-opacity="1" fill-rule="nonzero"/><path fill="#000000" d="M 209.320312 295.96875 C 207.183594 295.96875 205.453125 294.238281 205.453125 292.101562 L 205.453125 279.707031 C 205.453125 277.570312 207.183594 275.839844 209.320312 275.839844 C 211.457031 275.839844 213.1875 277.570312 213.1875 279.707031 L 213.1875 292.101562 C 213.1875 294.238281 211.457031 295.96875 209.320312 295.96875 Z M 209.320312 295.96875 " fill-opacity="1" fill-rule="nonzero"/><path fill="#000000" d="M 209.320312 318.132812 C 201.078125 318.132812 194.371094 311.425781 194.371094 303.183594 C 194.371094 294.941406 201.074219 288.230469 209.320312 288.230469 C 217.5625 288.230469 224.269531 294.9375 224.269531 303.183594 C 224.269531 311.425781 217.5625 318.132812 209.320312 318.132812 Z M 209.320312 295.96875 C 205.34375 295.96875 202.105469 299.207031 202.105469 303.183594 C 202.105469 307.160156 205.34375 310.394531 209.320312 310.394531 C 213.296875 310.394531 216.53125 307.160156 216.53125 303.183594 C 216.53125 299.207031 213.296875 295.96875 209.320312 295.96875 Z M 209.320312 295.96875 " fill-opacity="1" fill-rule="nonzero"/><path fill="#000000" d="M 219.921875 282.585938 L 198.71875 282.585938 C 196.582031 282.585938 194.851562 280.855469 194.851562 278.71875 L 194.851562 263.042969 C 194.851562 260.90625 196.582031 259.175781 198.71875 259.175781 C 200.855469 259.175781 202.585938 260.90625 202.585938 263.042969 L 202.585938 274.851562 L 216.050781 274.851562 L 216.050781 263.042969 C 216.050781 260.90625 217.78125 259.175781 219.921875 259.175781 C 222.058594 259.175781 223.789062 260.90625 223.789062 263.042969 L 223.789062 278.71875 C 223.789062 280.855469 222.054688 282.585938 219.921875 282.585938 Z M 219.921875 282.585938 " fill-opacity="1" fill-rule="nonzero"/><path fill="#000000" d="M 225.621094 266.910156 L 193.023438 266.910156 C 190.886719 266.910156 189.15625 265.179688 189.15625 263.042969 C 189.15625 260.90625 190.886719 259.175781 193.023438 259.175781 L 225.621094 259.175781 C 227.757812 259.175781 229.488281 260.90625 229.488281 263.042969 C 229.488281 265.179688 227.757812 266.910156 225.621094 266.910156 Z M 225.621094 266.910156 " fill-opacity="1" fill-rule="nonzero"/><path fill="#000000" d="M 255.390625 295.96875 C 253.253906 295.96875 251.523438 294.238281 251.523438 292.101562 L 251.523438 279.707031 C 251.523438 277.570312 253.253906 275.839844 255.390625 275.839844 C 257.527344 275.839844 259.261719 277.570312 259.261719 279.707031 L 259.261719 292.101562 C 259.261719 294.238281 257.527344 295.96875 255.390625 295.96875 Z M 255.390625 295.96875 " fill-opacity="1" fill-rule="nonzero"/><path fill="#000000" d="M 255.390625 318.132812 C 247.148438 318.132812 240.441406 311.425781 240.441406 303.183594 C 240.441406 294.941406 247.148438 288.230469 255.390625 288.230469 C 263.632812 288.230469 270.339844 294.9375 270.339844 303.183594 C 270.339844 311.425781 263.632812 318.132812 255.390625 318.132812 Z M 255.390625 295.96875 C 251.414062 295.96875 248.175781 299.207031 248.175781 303.183594 C 248.175781 307.160156 251.414062 310.394531 255.390625 310.394531 C 259.367188 310.394531 262.601562 307.160156 262.601562 303.183594 C 262.601562 299.207031 259.367188 295.96875 255.390625 295.96875 Z M 255.390625 295.96875 " fill-opacity="1" fill-rule="nonzero"/><path fill="#000000" d="M 265.992188 282.585938 L 244.789062 282.585938 C 242.652344 282.585938 240.921875 280.855469 240.921875 278.71875 L 240.921875 263.042969 C 240.921875 260.90625 242.652344 259.175781 244.789062 259.175781 C 246.925781 259.175781 248.65625 260.90625 248.65625 263.042969 L 248.65625 274.851562 L 262.121094 274.851562 L 262.121094 263.042969 C 262.121094 260.90625 263.855469 259.175781 265.992188 259.175781 C 268.128906 259.175781 269.859375 260.90625 269.859375 263.042969 L 269.859375 278.71875 C 269.859375 280.855469 268.125 282.585938 265.992188 282.585938 Z M 265.992188 282.585938 " fill-opacity="1" fill-rule="nonzero"/><path fill="#000000" d="M 271.691406 266.910156 L 239.09375 266.910156 C 236.957031 266.910156 235.226562 265.179688 235.226562 263.042969 C 235.226562 260.90625 236.957031 259.175781 239.09375 259.175781 L 271.691406 259.175781 C 273.828125 259.175781 275.5625 260.90625 275.5625 263.042969 C 275.5625 265.179688 273.828125 266.910156 271.691406 266.910156 Z M 271.691406 266.910156 " fill-opacity="1" fill-rule="nonzero"/></svg>