<svg xmlns="http://www.w3.org/2000/svg" xmlns:xlink="http://www.w3.org/1999/xlink" width="500" zoomAndPan="magnify" viewBox="0 0 375 374.999991" height="500" preserveAspectRatio="xMidYMid meet" version="1.0"><defs><clipPath id="7f47c25cac"><path d="M 143 284 L 248 284 L 248 318.816406 L 143 318.816406 Z M 143 284 " clip-rule="nonzero"/></clipPath><clipPath id="9e76c8200f"><path d="M 214 56.316406 L 311 56.316406 L 311 153 L 214 153 Z M 214 56.316406 " clip-rule="nonzero"/></clipPath><clipPath id="446d757ad1"><path d="M 197 163 L 337.5 163 L 337.5 318.816406 L 197 318.816406 Z M 197 163 " clip-rule="nonzero"/></clipPath><clipPath id="4bbc6959f3"><path d="M 37.5 199 L 165 199 L 165 318.816406 L 37.5 318.816406 Z M 37.5 199 " clip-rule="nonzero"/></clipPath></defs><g clip-path="url(#7f47c25cac)"><path fill="#f2f2f2" d="M 213.824219 284.207031 L 177.742188 284.207031 C 159.082031 284.207031 143.964844 299.328125 143.964844 317.976562 L 143.964844 318.539062 L 247.597656 318.539062 L 247.597656 317.976562 C 247.597656 299.328125 232.484375 284.207031 213.824219 284.207031 Z M 213.824219 284.207031 " fill-opacity="1" fill-rule="nonzero"/></g><path fill="#f2f2f2" d="M 228.511719 237.152344 C 228.511719 238.285156 228.457031 239.414062 228.347656 240.542969 C 228.234375 241.671875 228.070312 242.792969 227.847656 243.902344 C 227.625 245.015625 227.351562 246.113281 227.023438 247.195312 C 226.695312 248.28125 226.3125 249.347656 225.878906 250.394531 C 225.445312 251.441406 224.960938 252.464844 224.425781 253.464844 C 223.890625 254.464844 223.308594 255.433594 222.679688 256.378906 C 222.050781 257.320312 221.375 258.230469 220.65625 259.105469 C 219.9375 259.980469 219.179688 260.820312 218.378906 261.621094 C 217.574219 262.421875 216.738281 263.183594 215.859375 263.902344 C 214.984375 264.621094 214.074219 265.292969 213.132812 265.925781 C 212.191406 266.554688 211.21875 267.136719 210.21875 267.671875 C 209.222656 268.203125 208.199219 268.6875 207.152344 269.121094 C 206.105469 269.554688 205.039062 269.9375 203.953125 270.265625 C 202.867188 270.59375 201.769531 270.871094 200.660156 271.089844 C 199.546875 271.3125 198.429688 271.476562 197.300781 271.589844 C 196.171875 271.699219 195.042969 271.757812 193.910156 271.757812 C 192.773438 271.757812 191.644531 271.699219 190.515625 271.589844 C 189.386719 271.476562 188.269531 271.3125 187.15625 271.089844 C 186.046875 270.871094 184.949219 270.59375 183.863281 270.265625 C 182.777344 269.9375 181.714844 269.554688 180.664062 269.121094 C 179.617188 268.6875 178.59375 268.203125 177.597656 267.671875 C 176.597656 267.136719 175.625 266.554688 174.683594 265.925781 C 173.742188 265.292969 172.832031 264.621094 171.957031 263.902344 C 171.078125 263.183594 170.242188 262.421875 169.441406 261.621094 C 168.636719 260.820312 167.878906 259.980469 167.160156 259.105469 C 166.441406 258.230469 165.765625 257.320312 165.136719 256.378906 C 164.507812 255.433594 163.925781 254.464844 163.390625 253.464844 C 162.855469 252.464844 162.371094 251.441406 161.9375 250.394531 C 161.503906 249.347656 161.125 248.28125 160.792969 247.195312 C 160.464844 246.113281 160.191406 245.015625 159.96875 243.902344 C 159.746094 242.792969 159.582031 241.671875 159.472656 240.542969 C 159.359375 239.414062 159.304688 238.285156 159.304688 237.152344 C 159.304688 236.019531 159.359375 234.886719 159.472656 233.761719 C 159.582031 232.632812 159.746094 231.511719 159.96875 230.402344 C 160.191406 229.289062 160.464844 228.191406 160.792969 227.105469 C 161.125 226.023438 161.503906 224.957031 161.9375 223.910156 C 162.371094 222.863281 162.855469 221.839844 163.390625 220.839844 C 163.925781 219.839844 164.507812 218.871094 165.136719 217.925781 C 165.765625 216.984375 166.441406 216.074219 167.160156 215.199219 C 167.878906 214.324219 168.636719 213.484375 169.441406 212.683594 C 170.242188 211.882812 171.078125 211.121094 171.957031 210.402344 C 172.832031 209.683594 173.742188 209.007812 174.683594 208.378906 C 175.625 207.75 176.597656 207.167969 177.597656 206.632812 C 178.59375 206.101562 179.617188 205.617188 180.664062 205.183594 C 181.714844 204.75 182.777344 204.367188 183.863281 204.039062 C 184.949219 203.707031 186.046875 203.433594 187.15625 203.210938 C 188.269531 202.992188 189.386719 202.824219 190.515625 202.714844 C 191.644531 202.601562 192.773438 202.546875 193.910156 202.546875 C 195.042969 202.546875 196.171875 202.601562 197.300781 202.714844 C 198.429688 202.824219 199.546875 202.992188 200.660156 203.210938 C 201.769531 203.433594 202.867188 203.707031 203.953125 204.039062 C 205.039062 204.367188 206.105469 204.75 207.152344 205.183594 C 208.199219 205.617188 209.222656 206.101562 210.21875 206.632812 C 211.21875 207.167969 212.191406 207.75 213.132812 208.378906 C 214.074219 209.007812 214.984375 209.683594 215.859375 210.402344 C 216.738281 211.121094 217.574219 211.882812 218.378906 212.683594 C 219.179688 213.484375 219.9375 214.324219 220.65625 215.199219 C 221.375 216.074219 222.050781 216.984375 222.679688 217.925781 C 223.308594 218.871094 223.890625 219.839844 224.425781 220.839844 C 224.960938 221.839844 225.445312 222.863281 225.878906 223.910156 C 226.3125 224.957031 226.695312 226.023438 227.023438 227.105469 C 227.351562 228.191406 227.625 229.289062 227.847656 230.402344 C 228.070312 231.511719 228.234375 232.632812 228.347656 233.761719 C 228.457031 234.886719 228.511719 236.019531 228.511719 237.152344 Z M 228.511719 237.152344 " fill-opacity="1" fill-rule="nonzero"/><path fill="#f2f2f2" d="M 154.996094 141.335938 C 154.996094 142.910156 154.917969 144.480469 154.765625 146.050781 C 154.609375 147.617188 154.378906 149.171875 154.070312 150.71875 C 153.765625 152.261719 153.382812 153.789062 152.925781 155.296875 C 152.46875 156.804688 151.9375 158.285156 151.335938 159.742188 C 150.730469 161.195312 150.058594 162.617188 149.316406 164.007812 C 148.574219 165.398438 147.765625 166.746094 146.890625 168.054688 C 146.015625 169.367188 145.078125 170.628906 144.078125 171.847656 C 143.078125 173.066406 142.023438 174.230469 140.910156 175.34375 C 139.796875 176.457031 138.628906 177.515625 137.410156 178.515625 C 136.195312 179.511719 134.929688 180.449219 133.621094 181.324219 C 132.3125 182.199219 130.960938 183.007812 129.570312 183.753906 C 128.183594 184.496094 126.761719 185.167969 125.304688 185.769531 C 123.851562 186.371094 122.367188 186.902344 120.863281 187.359375 C 119.355469 187.816406 117.828125 188.199219 116.28125 188.507812 C 114.738281 188.8125 113.183594 189.046875 111.613281 189.199219 C 110.046875 189.355469 108.476562 189.429688 106.898438 189.429688 C 105.324219 189.429688 103.753906 189.355469 102.1875 189.199219 C 100.617188 189.046875 99.0625 188.8125 97.515625 188.507812 C 95.972656 188.199219 94.445312 187.816406 92.9375 187.359375 C 91.429688 186.902344 89.949219 186.371094 88.496094 185.769531 C 87.039062 185.167969 85.617188 184.496094 84.226562 183.753906 C 82.839844 183.007812 81.488281 182.199219 80.179688 181.324219 C 78.871094 180.449219 77.605469 179.511719 76.386719 178.515625 C 75.171875 177.515625 74.003906 176.457031 72.890625 175.34375 C 71.777344 174.230469 70.722656 173.066406 69.722656 171.847656 C 68.722656 170.628906 67.785156 169.367188 66.910156 168.054688 C 66.035156 166.746094 65.226562 165.398438 64.484375 164.007812 C 63.742188 162.617188 63.066406 161.195312 62.464844 159.742188 C 61.863281 158.285156 61.332031 156.804688 60.875 155.296875 C 60.417969 153.789062 60.035156 152.261719 59.726562 150.71875 C 59.421875 149.171875 59.191406 147.617188 59.035156 146.050781 C 58.882812 144.480469 58.804688 142.910156 58.804688 141.335938 C 58.804688 139.761719 58.882812 138.1875 59.035156 136.621094 C 59.191406 135.054688 59.421875 133.496094 59.726562 131.953125 C 60.035156 130.40625 60.417969 128.882812 60.875 127.375 C 61.332031 125.867188 61.863281 124.386719 62.464844 122.929688 C 63.066406 121.472656 63.742188 120.050781 64.484375 118.664062 C 65.226562 117.273438 66.035156 115.925781 66.910156 114.613281 C 67.785156 113.304688 68.722656 112.042969 69.722656 110.824219 C 70.722656 109.605469 71.777344 108.441406 72.890625 107.328125 C 74.003906 106.210938 75.171875 105.15625 76.386719 104.15625 C 77.605469 103.15625 78.871094 102.21875 80.179688 101.34375 C 81.488281 100.46875 82.839844 99.660156 84.226562 98.917969 C 85.617188 98.175781 87.039062 97.503906 88.496094 96.902344 C 89.949219 96.296875 91.429688 95.769531 92.9375 95.308594 C 94.445312 94.851562 95.972656 94.472656 97.515625 94.164062 C 99.0625 93.855469 100.617188 93.625 102.1875 93.472656 C 103.753906 93.316406 105.324219 93.238281 106.898438 93.238281 C 108.476562 93.238281 110.046875 93.316406 111.613281 93.472656 C 113.183594 93.625 114.738281 93.855469 116.28125 94.164062 C 117.828125 94.472656 119.355469 94.851562 120.863281 95.308594 C 122.367188 95.769531 123.851562 96.296875 125.304688 96.902344 C 126.761719 97.503906 128.183594 98.175781 129.570312 98.917969 C 130.960938 99.660156 132.3125 100.46875 133.621094 101.34375 C 134.929688 102.21875 136.195312 103.15625 137.410156 104.15625 C 138.628906 105.15625 139.796875 106.210938 140.910156 107.328125 C 142.023438 108.441406 143.078125 109.605469 144.078125 110.824219 C 145.078125 112.042969 146.015625 113.304688 146.890625 114.613281 C 147.765625 115.925781 148.574219 117.273438 149.316406 118.664062 C 150.058594 120.050781 150.730469 121.472656 151.335938 122.929688 C 151.9375 124.386719 152.46875 125.867188 152.925781 127.375 C 153.382812 128.882812 153.765625 130.40625 154.070312 131.953125 C 154.378906 133.496094 154.609375 135.054688 154.765625 136.621094 C 154.917969 138.1875 154.996094 139.761719 154.996094 141.335938 Z M 154.996094 141.335938 " fill-opacity="1" fill-rule="nonzero"/><g clip-path="url(#9e76c8200f)"><path fill="#f2f2f2" d="M 310.984375 104.613281 C 310.984375 106.191406 310.90625 107.761719 310.75 109.328125 C 310.597656 110.894531 310.367188 112.453125 310.058594 113.996094 C 309.75 115.542969 309.371094 117.070312 308.914062 118.574219 C 308.453125 120.082031 307.925781 121.566406 307.320312 123.019531 C 306.71875 124.476562 306.046875 125.898438 305.304688 127.285156 C 304.5625 128.675781 303.753906 130.027344 302.878906 131.335938 C 302.003906 132.644531 301.066406 133.910156 300.066406 135.125 C 299.066406 136.34375 298.011719 137.507812 296.894531 138.625 C 295.78125 139.738281 294.617188 140.792969 293.398438 141.792969 C 292.179688 142.792969 290.917969 143.730469 289.609375 144.605469 C 288.296875 145.480469 286.949219 146.289062 285.558594 147.03125 C 284.171875 147.773438 282.75 148.445312 281.292969 149.050781 C 279.835938 149.652344 278.355469 150.183594 276.847656 150.640625 C 275.339844 151.097656 273.816406 151.480469 272.269531 151.785156 C 270.726562 152.09375 269.167969 152.324219 267.601562 152.480469 C 266.035156 152.632812 264.460938 152.710938 262.886719 152.710938 C 261.3125 152.710938 259.742188 152.632812 258.171875 152.480469 C 256.605469 152.324219 255.050781 152.09375 253.503906 151.785156 C 251.960938 151.480469 250.433594 151.097656 248.925781 150.640625 C 247.417969 150.183594 245.9375 149.652344 244.480469 149.050781 C 243.027344 148.445312 241.605469 147.773438 240.214844 147.03125 C 238.824219 146.289062 237.476562 145.480469 236.167969 144.605469 C 234.855469 143.730469 233.59375 142.792969 232.375 141.792969 C 231.15625 140.792969 229.992188 139.738281 228.878906 138.625 C 227.765625 137.507812 226.707031 136.34375 225.707031 135.125 C 224.710938 133.910156 223.773438 132.644531 222.898438 131.335938 C 222.023438 130.027344 221.214844 128.675781 220.472656 127.285156 C 219.726562 125.898438 219.054688 124.476562 218.453125 123.019531 C 217.851562 121.566406 217.320312 120.082031 216.863281 118.574219 C 216.40625 117.070312 216.023438 115.542969 215.714844 113.996094 C 215.410156 112.453125 215.175781 110.894531 215.023438 109.328125 C 214.867188 107.761719 214.792969 106.191406 214.792969 104.613281 C 214.792969 103.039062 214.867188 101.46875 215.023438 99.898438 C 215.175781 98.332031 215.410156 96.777344 215.714844 95.230469 C 216.023438 93.6875 216.40625 92.160156 216.863281 90.652344 C 217.320312 89.144531 217.851562 87.664062 218.453125 86.210938 C 219.054688 84.753906 219.726562 83.332031 220.46875 81.941406 C 221.214844 80.554688 222.023438 79.203125 222.898438 77.894531 C 223.773438 76.585938 224.710938 75.320312 225.707031 74.101562 C 226.707031 72.886719 227.765625 71.71875 228.878906 70.605469 C 229.992188 69.492188 231.15625 68.433594 232.375 67.4375 C 233.59375 66.4375 234.855469 65.5 236.167969 64.625 C 237.476562 63.75 238.824219 62.941406 240.214844 62.199219 C 241.605469 61.457031 243.027344 60.78125 244.480469 60.179688 C 245.9375 59.578125 247.417969 59.046875 248.925781 58.589844 C 250.433594 58.132812 251.960938 57.75 253.503906 57.441406 C 255.050781 57.136719 256.605469 56.90625 258.171875 56.75 C 259.742188 56.597656 261.3125 56.519531 262.886719 56.519531 C 264.460938 56.519531 266.035156 56.597656 267.601562 56.75 C 269.167969 56.90625 270.726562 57.136719 272.269531 57.441406 C 273.816406 57.75 275.339844 58.132812 276.847656 58.589844 C 278.355469 59.046875 279.835938 59.578125 281.292969 60.179688 C 282.75 60.78125 284.171875 61.457031 285.558594 62.199219 C 286.949219 62.941406 288.296875 63.75 289.609375 64.625 C 290.917969 65.5 292.179688 66.4375 293.398438 67.4375 C 294.617188 68.433594 295.78125 69.492188 296.894531 70.605469 C 298.011719 71.71875 299.066406 72.886719 300.066406 74.101562 C 301.066406 75.320312 302.003906 76.585938 302.878906 77.894531 C 303.753906 79.203125 304.5625 80.554688 305.304688 81.941406 C 306.046875 83.332031 306.71875 84.753906 307.320312 86.210938 C 307.925781 87.664062 308.453125 89.144531 308.914062 90.652344 C 309.371094 92.160156 309.75 93.6875 310.058594 95.230469 C 310.367188 96.777344 310.597656 98.332031 310.75 99.898438 C 310.90625 101.46875 310.984375 103.039062 310.984375 104.613281 Z M 310.984375 104.613281 " fill-opacity="1" fill-rule="nonzero"/></g><g clip-path="url(#446d757ad1)"><path fill="#f2f2f2" d="M 290.5625 163.023438 L 240.417969 163.023438 C 221.546875 163.023438 205.320312 174.183594 197.867188 190.242188 C 221.988281 192.265625 241.007812 212.511719 241.007812 237.152344 C 241.007812 251.488281 234.550781 264.328125 224.417969 272.976562 C 244.832031 277.785156 260.097656 296.113281 260.097656 317.980469 L 260.097656 318.539062 L 337.5 318.539062 L 337.5 209.960938 C 337.5 184.042969 316.488281 163.023438 290.5625 163.023438 Z M 290.5625 163.023438 " fill-opacity="1" fill-rule="nonzero"/></g><g clip-path="url(#4bbc6959f3)"><path fill="#f2f2f2" d="M 164.265625 273.71875 C 153.625 265.074219 146.804688 251.902344 146.804688 237.152344 C 146.804688 225.34375 151.203125 214.566406 158.402344 206.289062 C 151.417969 202.160156 143.292969 199.746094 134.582031 199.746094 L 84.429688 199.746094 C 58.507812 199.742188 37.5 220.757812 37.5 246.679688 L 37.5 318.539062 L 131.464844 318.539062 L 131.464844 317.976562 C 131.464844 297.148438 145.304688 279.503906 164.265625 273.71875 Z M 164.265625 273.71875 " fill-opacity="1" fill-rule="nonzero"/></g></svg>