<svg xmlns="http://www.w3.org/2000/svg" xmlns:xlink="http://www.w3.org/1999/xlink" width="500" zoomAndPan="magnify" viewBox="0 0 375 374.999991" height="500" preserveAspectRatio="xMidYMid meet" version="1.0"><defs><clipPath id="14a1953872"><path d="M 37.5 37.5 L 221 37.5 L 221 213 L 37.5 213 Z M 37.5 37.5 " clip-rule="nonzero"/></clipPath><clipPath id="ad0fe929e5"><path d="M 199 66 L 337.5 66 L 337.5 189 L 199 189 Z M 199 66 " clip-rule="nonzero"/></clipPath></defs><g clip-path="url(#14a1953872)"><path fill="#f2f2f2" d="M 214.558594 192.8125 C 208.832031 189.691406 203.84375 185.535156 199.730469 180.457031 C 191.34375 170.125 187.484375 157.148438 188.863281 143.910156 C 190.242188 130.675781 196.691406 118.769531 207.019531 110.394531 C 208.753906 108.984375 210.617188 107.667969 212.5625 106.476562 L 212.667969 106.414062 L 212.777344 106.351562 L 212.929688 106.261719 C 212.992188 106.226562 213.054688 106.1875 213.117188 106.148438 L 213.304688 106.039062 C 215.039062 105.023438 216.835938 104.117188 218.660156 103.332031 L 213.820312 99.171875 L 213.820312 62.1875 L 213.800781 60.429688 L 190.417969 60.429688 L 188.660156 60.453125 L 188.660156 77.519531 L 142.214844 37.550781 L 39.082031 126.257812 L 39.046875 126.289062 C 37.890625 127.308594 37.484375 128.964844 38.027344 130.410156 C 38.582031 131.871094 39.957031 132.820312 41.527344 132.820312 L 60.539062 132.820312 L 60.539062 212.890625 L 66.386719 207.441406 C 69.886719 204.175781 74.453125 202.375 79.246094 202.375 C 84.242188 202.375 89.070312 204.378906 92.59375 207.90625 L 105.929688 194.507812 L 106.128906 194.308594 L 106.335938 194.121094 C 106.582031 193.898438 106.824219 193.6875 107.066406 193.46875 L 107.136719 193.40625 L 107.15625 193.386719 C 107.328125 193.238281 107.492188 193.097656 107.65625 192.957031 L 107.703125 192.917969 C 109.511719 191.402344 111.550781 189.945312 113.792969 188.566406 L 113.792969 155.195312 C 113.792969 152.859375 115.695312 150.960938 118.027344 150.960938 L 166.355469 150.960938 C 168.691406 150.960938 170.589844 152.859375 170.589844 155.195312 L 170.589844 184.347656 L 196.886719 194.441406 C 199.96875 195.269531 203.144531 195.691406 206.332031 195.691406 L 220.84375 195.691406 C 218.691406 194.878906 216.589844 193.914062 214.558594 192.8125 Z M 214.558594 192.8125 " fill-opacity="1" fill-rule="nonzero"/></g><path fill="#f2f2f2" d="M 333.785156 184.371094 C 333.785156 187.863281 332.484375 191.214844 330.128906 193.800781 L 298.269531 231.425781 C 298.03125 231.6875 297.777344 231.945312 297.515625 232.191406 L 271.5 256.761719 C 271.335938 256.917969 271.164062 257.074219 270.996094 257.230469 C 270.65625 257.542969 270.316406 257.851562 269.96875 258.152344 C 269.621094 258.457031 269.273438 258.757812 268.921875 259.050781 C 266.980469 260.671875 264.941406 262.15625 262.8125 263.503906 C 262.429688 263.75 262.039062 263.988281 261.648438 264.222656 C 259.6875 265.402344 257.65625 266.464844 255.570312 267.402344 C 254.945312 267.6875 254.316406 267.957031 253.6875 268.214844 C 252.84375 268.5625 251.988281 268.890625 251.121094 269.195312 C 250.476562 269.425781 249.828125 269.644531 249.175781 269.851562 C 248.738281 269.992188 248.300781 270.121094 247.863281 270.25 C 247.203125 270.445312 246.542969 270.625 245.882812 270.792969 C 243 271.527344 240.0625 272.039062 237.097656 272.328125 C 236.640625 272.371094 236.183594 272.40625 235.726562 272.441406 C 234.351562 272.542969 232.972656 272.59375 231.59375 272.59375 C 231.019531 272.59375 230.445312 272.582031 229.867188 272.5625 L 184.71875 271.152344 C 184.496094 271.144531 184.277344 271.140625 184.054688 271.140625 C 183.597656 271.140625 183.144531 271.152344 182.691406 271.183594 C 182.390625 271.203125 182.089844 271.230469 181.789062 271.261719 C 181.488281 271.292969 181.1875 271.335938 180.894531 271.378906 C 179.109375 271.648438 177.367188 272.148438 175.714844 272.859375 C 175.4375 272.976562 175.164062 273.101562 174.894531 273.234375 C 174.082031 273.625 173.292969 274.066406 172.535156 274.566406 C 172.15625 274.8125 171.78125 275.070312 171.417969 275.347656 C 171.175781 275.527344 170.933594 275.714844 170.699219 275.910156 L 162.378906 282.71875 L 161.917969 282.222656 L 160.734375 280.953125 L 159.558594 279.6875 L 159.554688 279.679688 L 159.546875 279.675781 L 103.269531 219.332031 L 102.347656 218.34375 L 101.167969 217.074219 L 99.972656 215.796875 L 99.714844 215.519531 L 113.316406 201.859375 C 113.472656 201.714844 113.632812 201.574219 113.792969 201.433594 C 113.878906 201.355469 113.964844 201.277344 114.050781 201.203125 C 114.167969 201.097656 114.285156 201 114.398438 200.902344 C 116.140625 199.441406 118.175781 198.042969 120.460938 196.726562 C 124.546875 194.378906 128.945312 192.605469 133.535156 191.460938 C 137.65625 190.429688 141.910156 189.90625 146.1875 189.90625 C 152.695312 189.90625 159.089844 191.09375 165.195312 193.4375 L 170.589844 195.507812 L 193.625 204.347656 C 197.757812 205.515625 202.03125 206.109375 206.332031 206.109375 L 240.023438 206.109375 C 245.253906 206.109375 250.148438 208.453125 253.421875 212.457031 L 253.46875 212.433594 C 253.785156 212.929688 254.066406 213.433594 254.316406 213.945312 C 254.574219 214.480469 254.796875 215.019531 254.976562 215.566406 C 255.410156 216.816406 255.632812 218.074219 255.632812 219.273438 C 255.632812 221.648438 254.976562 223.972656 253.734375 225.976562 L 253.535156 226.308594 C 251.257812 229.996094 247.328125 232.246094 243.015625 232.328125 C 241.074219 232.363281 238.914062 232.390625 236.585938 232.414062 C 236.121094 232.417969 235.652344 232.421875 235.175781 232.425781 C 234.9375 232.429688 234.695312 232.433594 234.453125 232.433594 C 233.972656 232.4375 233.484375 232.4375 232.992188 232.441406 C 232.746094 232.441406 232.5 232.445312 232.246094 232.445312 C 231.496094 232.449219 230.738281 232.453125 229.96875 232.460938 C 226.636719 232.472656 223.125 232.480469 219.566406 232.480469 C 212.59375 232.480469 205.445312 232.457031 199.128906 232.421875 C 198.554688 232.417969 197.988281 232.414062 197.429688 232.414062 C 196.308594 232.40625 195.222656 232.402344 194.164062 232.394531 C 193.640625 232.390625 193.125 232.390625 192.617188 232.386719 C 191.261719 232.375 189.980469 232.371094 188.78125 232.359375 C 188.484375 232.359375 188.1875 232.355469 187.898438 232.355469 C 187.035156 232.347656 186.214844 232.34375 185.453125 232.335938 C 185.199219 232.335938 184.953125 232.332031 184.714844 232.332031 C 184.59375 232.332031 184.472656 232.328125 184.355469 232.328125 L 184.277344 242.75 C 191.8125 242.808594 206.046875 242.902344 219.636719 242.902344 C 228.425781 242.902344 236.949219 242.859375 243.207031 242.746094 C 251.085938 242.601562 258.261719 238.5 262.398438 231.78125 L 262.601562 231.457031 C 264.859375 227.792969 266.050781 223.578125 266.050781 219.273438 C 266.050781 216.296875 265.410156 213.300781 264.171875 210.429688 C 263.941406 209.902344 263.691406 209.378906 263.425781 208.859375 C 263.160156 208.347656 262.875 207.84375 262.578125 207.34375 L 275.980469 199.855469 C 276.703125 199.441406 277.375 198.925781 277.960938 198.339844 L 294.921875 180.261719 C 295.34375 179.839844 295.757812 179.425781 296.167969 179.007812 C 300.617188 174.511719 304.824219 170.269531 311.574219 168.769531 C 313.140625 168.421875 314.730469 168.25 316.308594 168.25 C 322.664062 168.25 326.152344 170.660156 330.023438 174.824219 C 332.449219 177.425781 333.785156 180.816406 333.785156 184.371094 Z M 333.785156 184.371094 " fill-opacity="1" fill-rule="nonzero"/><g clip-path="url(#ad0fe929e5)"><path fill="#f2f2f2" d="M 334.769531 68.273438 L 318.707031 66.601562 C 318.613281 66.59375 318.523438 66.585938 318.433594 66.585938 C 317.777344 66.585938 317.144531 66.808594 316.625 67.230469 L 257.941406 114.847656 C 256.890625 114.253906 255.816406 113.703125 254.714844 113.210938 C 254.628906 113.171875 254.539062 113.128906 254.449219 113.09375 C 254.359375 113.050781 254.273438 113.011719 254.183594 112.972656 C 253.894531 112.847656 253.605469 112.726562 253.316406 112.609375 C 253.1875 112.5625 253.0625 112.507812 252.9375 112.460938 C 252.8125 112.40625 252.683594 112.359375 252.558594 112.3125 C 252.285156 112.210938 252.011719 112.109375 251.734375 112.011719 C 251.460938 111.910156 251.183594 111.816406 250.90625 111.726562 C 250.730469 111.667969 250.554688 111.609375 250.375 111.554688 C 250.324219 111.539062 250.273438 111.523438 250.226562 111.507812 C 250.054688 111.453125 249.878906 111.402344 249.707031 111.351562 C 248.878906 111.105469 248.046875 110.890625 247.207031 110.699219 C 246.792969 110.605469 246.375 110.515625 245.957031 110.433594 C 245.605469 110.367188 245.257812 110.304688 244.90625 110.246094 C 244.628906 110.199219 244.347656 110.15625 244.066406 110.117188 C 243.855469 110.085938 243.644531 110.054688 243.433594 110.03125 C 243.222656 110.003906 243.019531 109.980469 242.8125 109.957031 C 242.800781 109.953125 242.789062 109.953125 242.78125 109.953125 C 242.417969 109.910156 242.058594 109.875 241.695312 109.847656 C 241.53125 109.832031 241.371094 109.820312 241.210938 109.808594 C 241.128906 109.800781 241.050781 109.796875 240.96875 109.792969 C 240.890625 109.789062 240.808594 109.78125 240.730469 109.777344 C 240.570312 109.769531 240.414062 109.761719 240.253906 109.75 C 239.898438 109.734375 239.542969 109.722656 239.1875 109.714844 C 238.902344 109.707031 238.621094 109.707031 238.335938 109.707031 C 238.089844 109.707031 237.84375 109.707031 237.597656 109.714844 C 237.519531 109.714844 237.445312 109.714844 237.367188 109.71875 C 237.152344 109.722656 236.9375 109.730469 236.71875 109.738281 C 236.652344 109.742188 236.582031 109.742188 236.515625 109.75 C 236.480469 109.75 236.449219 109.753906 236.414062 109.753906 C 236.195312 109.761719 235.976562 109.773438 235.757812 109.789062 C 235.472656 109.804688 235.183594 109.828125 234.898438 109.855469 C 234.722656 109.867188 234.542969 109.886719 234.363281 109.902344 C 234.160156 109.921875 233.960938 109.941406 233.757812 109.96875 C 233.5625 109.992188 233.359375 110.015625 233.160156 110.042969 C 232.886719 110.078125 232.609375 110.117188 232.335938 110.160156 C 232.070312 110.199219 231.808594 110.242188 231.542969 110.289062 C 231.300781 110.332031 231.054688 110.375 230.808594 110.425781 C 230.707031 110.441406 230.597656 110.460938 230.492188 110.488281 C 230.492188 110.488281 230.492188 110.488281 230.488281 110.488281 C 230.074219 110.566406 229.660156 110.65625 229.25 110.757812 C 229.039062 110.804688 228.828125 110.859375 228.613281 110.914062 C 228.542969 110.929688 228.472656 110.949219 228.398438 110.96875 C 228.179688 111.023438 227.964844 111.085938 227.746094 111.148438 L 227.742188 111.148438 C 227.644531 111.171875 227.546875 111.199219 227.445312 111.230469 C 227.347656 111.257812 227.25 111.289062 227.148438 111.316406 C 227.128906 111.320312 227.105469 111.328125 227.082031 111.335938 C 226.988281 111.367188 226.890625 111.394531 226.796875 111.425781 C 226.714844 111.449219 226.632812 111.476562 226.546875 111.5 C 226.460938 111.527344 226.378906 111.554688 226.292969 111.582031 C 226.265625 111.589844 226.242188 111.597656 226.21875 111.605469 C 226.207031 111.609375 226.199219 111.613281 226.1875 111.617188 C 226.183594 111.617188 226.183594 111.617188 226.179688 111.621094 C 225.957031 111.6875 225.730469 111.765625 225.511719 111.839844 C 225.277344 111.921875 225.042969 112.003906 224.8125 112.089844 C 222.65625 112.878906 220.550781 113.878906 218.550781 115.039062 C 218.425781 115.117188 218.304688 115.191406 218.179688 115.261719 L 218.007812 115.363281 C 216.457031 116.3125 214.972656 117.359375 213.589844 118.484375 C 205.417969 125.109375 200.320312 134.523438 199.230469 144.988281 C 198.140625 155.453125 201.191406 165.71875 207.824219 173.886719 C 211.085938 177.914062 215.03125 181.199219 219.546875 183.660156 C 219.734375 183.757812 219.917969 183.859375 220.105469 183.957031 C 220.292969 184.054688 220.480469 184.152344 220.664062 184.246094 C 220.851562 184.339844 221.039062 184.433594 221.230469 184.523438 C 221.398438 184.605469 221.5625 184.6875 221.730469 184.761719 C 221.816406 184.800781 221.902344 184.84375 221.992188 184.882812 C 222.179688 184.972656 222.367188 185.054688 222.558594 185.136719 C 222.769531 185.230469 222.976562 185.320312 223.1875 185.410156 C 223.410156 185.503906 223.628906 185.59375 223.847656 185.679688 C 224 185.738281 224.148438 185.796875 224.296875 185.855469 C 224.347656 185.878906 224.398438 185.894531 224.445312 185.914062 C 224.464844 185.917969 224.480469 185.925781 224.496094 185.933594 C 224.507812 185.9375 224.515625 185.941406 224.527344 185.945312 C 224.722656 186.015625 224.917969 186.089844 225.113281 186.160156 C 225.324219 186.234375 225.539062 186.3125 225.75 186.382812 C 226.03125 186.480469 226.308594 186.570312 226.589844 186.660156 C 226.652344 186.679688 226.714844 186.699219 226.777344 186.71875 C 227.050781 186.804688 227.328125 186.886719 227.601562 186.964844 C 227.796875 187.019531 227.992188 187.074219 228.191406 187.128906 C 228.390625 187.183594 228.585938 187.234375 228.785156 187.285156 C 228.984375 187.332031 229.179688 187.382812 229.378906 187.429688 C 229.578125 187.480469 229.773438 187.523438 229.972656 187.566406 C 230.136719 187.601562 230.300781 187.636719 230.460938 187.671875 C 230.621094 187.703125 230.785156 187.734375 230.949219 187.765625 C 231.152344 187.808594 231.355469 187.847656 231.558594 187.882812 C 231.710938 187.910156 231.863281 187.9375 232.015625 187.960938 L 232.027344 187.960938 C 232.304688 188.007812 232.585938 188.050781 232.863281 188.089844 C 233.082031 188.121094 233.300781 188.152344 233.519531 188.179688 C 233.738281 188.207031 233.957031 188.234375 234.175781 188.257812 C 234.578125 188.296875 234.976562 188.335938 235.382812 188.367188 C 235.582031 188.386719 235.785156 188.398438 235.984375 188.410156 C 236.164062 188.421875 236.335938 188.433594 236.511719 188.441406 C 236.6875 188.449219 236.855469 188.453125 237.03125 188.460938 C 237.175781 188.46875 237.324219 188.472656 237.46875 188.476562 C 237.515625 188.476562 237.558594 188.480469 237.605469 188.480469 L 237.648438 188.480469 C 237.902344 188.484375 238.152344 188.484375 238.402344 188.484375 L 238.425781 188.484375 C 247.261719 188.484375 256.03125 185.496094 263.226562 179.652344 C 266.695312 176.839844 269.628906 173.5 271.964844 169.722656 L 272.046875 169.582031 C 272.15625 169.40625 272.261719 169.230469 272.359375 169.0625 C 278.078125 159.351562 279.359375 147.710938 275.917969 137.011719 L 285.261719 129.425781 L 285.621094 121.664062 L 293.289062 122.910156 L 301.472656 116.273438 L 301.832031 108.511719 L 309.5 109.753906 L 317.675781 103.121094 L 318.039062 95.359375 L 325.707031 96.605469 L 334.613281 89.382812 C 335.199219 88.902344 335.574219 88.195312 335.644531 87.460938 L 337.316406 71.417969 C 337.480469 69.851562 336.335938 68.441406 334.769531 68.273438 Z M 233.957031 165.226562 C 232.15625 166.6875 229.988281 167.398438 227.828125 167.398438 C 224.992188 167.398438 222.175781 166.167969 220.253906 163.796875 C 216.867188 159.625 217.511719 153.476562 221.683594 150.09375 C 225.855469 146.707031 232 147.347656 235.382812 151.519531 C 238.773438 155.691406 238.132812 161.839844 233.957031 165.226562 Z M 233.957031 165.226562 " fill-opacity="1" fill-rule="nonzero"/></g><path fill="#f2f2f2" d="M 162.542969 298.171875 L 161.421875 296.96875 L 154.296875 289.332031 L 153.109375 288.054688 L 151.925781 286.78125 L 95.914062 226.722656 L 94.726562 225.449219 L 92.359375 222.910156 L 85.429688 215.476562 C 85.371094 215.414062 85.3125 215.351562 85.246094 215.289062 C 84.457031 214.492188 83.542969 213.882812 82.5625 213.46875 C 82.300781 213.355469 82.03125 213.257812 81.757812 213.175781 C 81.621094 213.132812 81.488281 213.09375 81.347656 213.0625 C 81.074219 212.992188 80.796875 212.933594 80.515625 212.890625 C 80.09375 212.828125 79.671875 212.796875 79.246094 212.796875 C 78.863281 212.796875 78.472656 212.824219 78.089844 212.875 C 77.832031 212.910156 77.578125 212.957031 77.328125 213.015625 C 76.949219 213.105469 76.574219 213.21875 76.203125 213.359375 C 75.960938 213.457031 75.71875 213.5625 75.480469 213.679688 C 75.246094 213.796875 75.011719 213.925781 74.789062 214.066406 C 74.332031 214.351562 73.898438 214.683594 73.492188 215.0625 L 60.539062 227.136719 L 45.394531 241.261719 C 41.988281 244.441406 41.804688 249.796875 44.976562 253.199219 L 122.09375 335.890625 C 123.753906 337.671875 126.011719 338.574219 128.273438 338.574219 C 130.335938 338.574219 132.40625 337.824219 134.035156 336.308594 L 162.125 310.109375 L 162.125 310.105469 C 163.777344 308.566406 164.726562 306.480469 164.808594 304.222656 C 164.882812 301.96875 164.082031 299.820312 162.542969 298.171875 Z M 130.597656 312.089844 C 126.964844 312.089844 124.003906 309.128906 124.003906 305.496094 C 124.003906 301.863281 126.964844 298.902344 130.597656 298.902344 C 134.230469 298.902344 137.191406 301.863281 137.191406 305.496094 C 137.1875 309.128906 134.226562 312.089844 130.597656 312.089844 Z M 130.597656 312.089844 " fill-opacity="1" fill-rule="nonzero"/></svg>